<svg xmlns="http://www.w3.org/2000/svg" viewBox="0 0 1024 256">
  
  <defs>
    <linearGradient id="grad-primary" x1="0" y1="1" x2="1" y2="0">
      <stop offset="0%" stop-color="#0E4E94"/>
      <stop offset="100%" stop-color="#1160B1"/>
    </linearGradient>
    <linearGradient id="grad-teal" x1="0" y1="1" x2="1" y2="0">
      <stop offset="0%" stop-color="#23BFBF"/>
      <stop offset="100%" stop-color="#1160B1"/>
    </linearGradient>
  </defs>

  <rect width="1024" height="256" fill="#0F172A"/>
  <!-- Icon (brace + bars) -->
  <g transform="translate(64,48)">
    <path d="M40,24c-12,0-22,10-22,22v6c0,10-6,18-14,22c8,4,14,12,14,22v6c0,12,10,22,22,22h6v-18h-6c-2,0-4-2-4-4v-6
             c0-14-5-24-15-30c10-6,15-16,15-30v-6c0-2,2-4,4-4h6V24z" fill="#1160B1" opacity="0.95"/>
    <path d="M164,24h-6v18h6c2,0,4,2,4,4v6c0,14,5,24,15,30c-10,6-15,16-15,30v6c0,2-2,4-4,4h-6v18h6
             c12,0,22-10,22-22v-6c0-10,6-18,14-22c-8-4-14-12-14-22v-6c0-12-10-22-22-22z" fill="#23BFBF" opacity="0.95"/>
    <rect x="72" y="98" width="18" height="42" rx="6" fill="url(#grad-primary)"/>
    <rect x="98" y="78" width="18" height="62" rx="6" fill="url(#grad-teal)"/>
    <rect x="124" y="60" width="18" height="80" rx="6" fill="url(#grad-primary)"/>
    <circle cx="146" cy="52" r="4" fill="#F59E0B"/>
  </g>
  <!-- Wordmark right -->
  <g font-family="Inter, system-ui, -apple-system, Segoe UI, Roboto, Helvetica, Arial, sans-serif">
    <text x="256" y="118" font-size="66" font-weight="800" fill="#F8FAFC" letter-spacing="0.5">ERP</text>
    <circle cx="404" cy="98" r="6" fill="#23BFBF"/>
    <text x="420" y="118" font-size="66" font-weight="800" fill="#F8FAFC" letter-spacing="0.5">B</text>
    <rect x="482" y="68" width="8" height="58" rx="4" fill="#F8FAFC"/>
    <circle cx="486" cy="56" r="6" fill="#F59E0B"/>
    <text x="512" y="118" font-size="54" font-weight="700" fill="#CBD5E1" letter-spacing="0.4">Operations</text>
    <path d="M552 194 H980" stroke="url(#grad-teal)" stroke-width="6" stroke-linecap="round" opacity="0.7"/>
  </g>
</svg>